<?xml version="1.0" encoding="UTF-8" standalone="no"?>
<!DOCTYPE svg PUBLIC "-//W3C//DTD SVG 1.1//EN"
 "http://www.w3.org/Graphics/SVG/1.1/DTD/svg11.dtd">
<!-- Generated by graphviz version 2.40.1 (20161225.0304)
 -->
<!-- Title: UmlClassDiagram Pages: 1 -->
<svg width="759pt" height="438pt"
 viewBox="0.00 0.00 759.30 438.00" xmlns="http://www.w3.org/2000/svg" xmlns:xlink="http://www.w3.org/1999/xlink">
<g id="graph0" class="graph" transform="scale(1 1) rotate(0) translate(4 434)">
<title>UmlClassDiagram</title>
<polygon fill="#ffffff" stroke="transparent" points="-4,4 -4,-434 755.2953,-434 755.2953,4 -4,4"/>
<!-- 0 -->
<g id="node1" class="node">
<title>0</title>
<polygon fill="#f2f2f2" stroke="#000000" points="301.6964,-.5 301.6964,-36.5 355.6964,-36.5 355.6964,-.5 301.6964,-.5"/>
<text text-anchor="middle" x="328.3647" y="-14.4" font-family="Times,serif" font-size="14.00" fill="#000000">Box</text>
</g>
<!-- 1 -->
<g id="node2" class="node">
<title>1</title>
<polygon fill="#f2f2f2" stroke="#000000" points="0,-76.3 0,-112.3 119.3928,-112.3 119.3928,-76.3 0,-76.3"/>
<text text-anchor="middle" x="59.6964" y="-90.2" font-family="Times,serif" font-size="14.00" fill="#000000">GovernanceToken</text>
</g>
<!-- 15 -->
<g id="node17" class="node">
<title>15</title>
<polygon fill="#f2f2f2" stroke="#000000" points="12.1961,-152.1 12.1961,-193.7 107.1967,-193.7 107.1967,-152.1 12.1961,-152.1"/>
<text text-anchor="middle" x="59.6964" y="-177.1" font-family="Times,serif" font-size="14.00" fill="#000000">&lt;&lt;Abstract&gt;&gt;</text>
<text text-anchor="middle" x="59.6964" y="-160.3" font-family="Times,serif" font-size="14.00" fill="#000000">ERC20Votes</text>
</g>
<!-- 1&#45;&gt;15 -->
<g id="edge1" class="edge">
<title>1&#45;&gt;15</title>
<path fill="none" stroke="#000000" d="M59.6964,-112.53C59.6964,-115.4777 59.6964,-118.65 59.6964,-121.9423"/>
<polygon fill="none" stroke="#000000" points="49.1965,-121.9914 59.6964,-151.9915 70.1965,-121.9915 49.1965,-121.9914"/>
</g>
<!-- 2 -->
<g id="node3" class="node">
<title>2</title>
<polygon fill="#f2f2f2" stroke="#000000" points="373.7714,-.5 373.7714,-36.5 491.6214,-36.5 491.6214,-.5 373.7714,-.5"/>
<text text-anchor="middle" x="432.6964" y="-14.4" font-family="Times,serif" font-size="14.00" fill="#000000">GovernorContract</text>
</g>
<!-- 7 -->
<g id="node9" class="node">
<title>7</title>
<polygon fill="#f2f2f2" stroke="#000000" points="351.9818,-73.5 351.9818,-115.1 513.411,-115.1 513.411,-73.5 351.9818,-73.5"/>
<text text-anchor="middle" x="432.6964" y="-98.5" font-family="Times,serif" font-size="14.00" fill="#000000">&lt;&lt;Abstract&gt;&gt;</text>
<text text-anchor="middle" x="432.6964" y="-81.7" font-family="Times,serif" font-size="14.00" fill="#000000">GovernorCountingSimple</text>
</g>
<!-- 2&#45;&gt;7 -->
<g id="edge2" class="edge">
<title>2&#45;&gt;7</title>
<path fill="none" stroke="#000000" d="M432.6964,-36.8491C432.6964,-38.9193 432.6964,-41.0967 432.6964,-43.3439"/>
<polygon fill="none" stroke="#000000" points="422.1965,-43.4431 432.6964,-73.4432 443.1965,-43.4432 422.1965,-43.4431"/>
</g>
<!-- 8 -->
<g id="node10" class="node">
<title>8</title>
<polygon fill="#f2f2f2" stroke="#000000" points="458.6592,-152.1 458.6592,-193.7 624.7336,-193.7 624.7336,-152.1 458.6592,-152.1"/>
<text text-anchor="middle" x="541.6964" y="-177.1" font-family="Times,serif" font-size="14.00" fill="#000000">&lt;&lt;Abstract&gt;&gt;</text>
<text text-anchor="middle" x="541.6964" y="-160.3" font-family="Times,serif" font-size="14.00" fill="#000000">GovernorTimelockControl</text>
</g>
<!-- 2&#45;&gt;8 -->
<g id="edge4" class="edge">
<title>2&#45;&gt;8</title>
<path fill="none" stroke="#000000" d="M478.2738,-36.5743C494.6474,-45.2488 511.7541,-57.2477 522.6964,-73 532.512,-87.1303 537.6078,-104.9795 540.1549,-121.6684"/>
<polygon fill="none" stroke="#000000" points="529.7097,-122.7841 542.4924,-151.8849 550.6472,-121.1644 529.7097,-122.7841"/>
</g>
<!-- 11 -->
<g id="node12" class="node">
<title>11</title>
<polygon fill="#f2f2f2" stroke="#000000" points="137.8913,-73.5 137.8913,-115.1 333.5015,-115.1 333.5015,-73.5 137.8913,-73.5"/>
<text text-anchor="middle" x="235.6964" y="-98.5" font-family="Times,serif" font-size="14.00" fill="#000000">&lt;&lt;Abstract&gt;&gt;</text>
<text text-anchor="middle" x="235.6964" y="-81.7" font-family="Times,serif" font-size="14.00" fill="#000000">GovernorVotesQuorumFraction</text>
</g>
<!-- 2&#45;&gt;11 -->
<g id="edge3" class="edge">
<title>2&#45;&gt;11</title>
<path fill="none" stroke="#000000" d="M385.7603,-36.5597C365.5153,-44.3494 341.2231,-53.6963 318.1399,-62.5781"/>
<polygon fill="none" stroke="#000000" points="314.1717,-52.8544 289.9435,-73.4273 321.713,-72.4536 314.1717,-52.8544"/>
</g>
<!-- 3 -->
<g id="node4" class="node">
<title>3</title>
<polygon fill="#f2f2f2" stroke="#000000" points="650.5386,-154.9 650.5386,-190.9 724.8542,-190.9 724.8542,-154.9 650.5386,-154.9"/>
<text text-anchor="middle" x="687.6964" y="-168.8" font-family="Times,serif" font-size="14.00" fill="#000000">TimeLock</text>
</g>
<!-- 6 -->
<g id="node8" class="node">
<title>6</title>
<polygon fill="#f2f2f2" stroke="#000000" points="624.0975,-233.5 624.0975,-269.5 751.2953,-269.5 751.2953,-233.5 624.0975,-233.5"/>
<text text-anchor="middle" x="687.6964" y="-247.4" font-family="Times,serif" font-size="14.00" fill="#000000">TimelockController</text>
</g>
<!-- 3&#45;&gt;6 -->
<g id="edge5" class="edge">
<title>3&#45;&gt;6</title>
<path fill="none" stroke="#000000" d="M687.6964,-191.13C687.6964,-194.8997 687.6964,-199.0366 687.6964,-203.3222"/>
<polygon fill="none" stroke="#000000" points="677.1965,-203.3688 687.6964,-233.3689 698.1965,-203.3689 677.1965,-203.3688"/>
</g>
<!-- 17 -->
<g id="node5" class="node">
<title>17</title>
<polygon fill="#f2f2f2" stroke="#000000" points="638.4874,-309.3 638.4874,-350.9 736.9054,-350.9 736.9054,-309.3 638.4874,-309.3"/>
<text text-anchor="middle" x="687.6964" y="-334.3" font-family="Times,serif" font-size="14.00" fill="#000000">&lt;&lt;Abstract&gt;&gt;</text>
<text text-anchor="middle" x="687.6964" y="-317.5" font-family="Times,serif" font-size="14.00" fill="#000000">AccessControl</text>
</g>
<!-- 4 -->
<g id="node6" class="node">
<title>4</title>
<polygon fill="#f2f2f2" stroke="#000000" points="365.1961,-230.7 365.1961,-272.3 460.1967,-272.3 460.1967,-230.7 365.1961,-230.7"/>
<text text-anchor="middle" x="412.6964" y="-255.7" font-family="Times,serif" font-size="14.00" fill="#000000">&lt;&lt;Abstract&gt;&gt;</text>
<text text-anchor="middle" x="412.6964" y="-238.9" font-family="Times,serif" font-size="14.00" fill="#000000">Governor</text>
</g>
<!-- 5 -->
<g id="node7" class="node">
<title>5</title>
<polygon fill="#f2f2f2" stroke="#000000" points="429.1961,-309.3 429.1961,-350.9 524.1967,-350.9 524.1967,-309.3 429.1961,-309.3"/>
<text text-anchor="middle" x="476.6964" y="-334.3" font-family="Times,serif" font-size="14.00" fill="#000000">&lt;&lt;Abstract&gt;&gt;</text>
<text text-anchor="middle" x="476.6964" y="-317.5" font-family="Times,serif" font-size="14.00" fill="#000000">IGovernor</text>
</g>
<!-- 4&#45;&gt;5 -->
<g id="edge6" class="edge">
<title>4&#45;&gt;5</title>
<path fill="none" stroke="#000000" d="M429.8472,-272.5634C433.2461,-276.7377 436.9322,-281.2646 440.6933,-285.8837"/>
<polygon fill="none" stroke="#000000" points="432.6356,-292.6173 459.7202,-309.251 448.9201,-279.3577 432.6356,-292.6173"/>
</g>
<!-- 6&#45;&gt;17 -->
<g id="edge7" class="edge">
<title>6&#45;&gt;17</title>
<path fill="none" stroke="#000000" d="M687.6964,-269.73C687.6964,-272.6777 687.6964,-275.85 687.6964,-279.1423"/>
<polygon fill="none" stroke="#000000" points="677.1965,-279.1914 687.6964,-309.1915 698.1965,-279.1915 677.1965,-279.1914"/>
</g>
<!-- 7&#45;&gt;4 -->
<g id="edge8" class="edge">
<title>7&#45;&gt;4</title>
<path fill="none" stroke="#000000" d="M430.0406,-115.1749C427.2762,-136.9028 422.8431,-171.7469 419.1508,-200.7683"/>
<polygon fill="none" stroke="#000000" points="408.7336,-199.4534 415.3632,-230.5387 429.5656,-202.1038 408.7336,-199.4534"/>
</g>
<!-- 8&#45;&gt;4 -->
<g id="edge10" class="edge">
<title>8&#45;&gt;4</title>
<path fill="none" stroke="#000000" d="M507.4654,-193.757C496.8231,-200.2414 484.7589,-207.5922 472.89,-214.8239"/>
<polygon fill="none" stroke="#000000" points="467.243,-205.9691 447.0873,-230.5455 478.1698,-223.9024 467.243,-205.9691"/>
</g>
<!-- 8&#45;&gt;6 -->
<g id="edge11" class="edge">
<title>8&#45;&gt;6</title>
<path fill="none" stroke="#000000" d="M580.4384,-193.757C600.4546,-204.5329 624.9149,-217.7012 645.4195,-228.74"/>
<polygon fill="#000000" stroke="#000000" points="643.7712,-231.8275 654.2354,-233.4861 647.0894,-225.6639 643.7712,-231.8275"/>
</g>
<!-- 10 -->
<g id="node13" class="node">
<title>10</title>
<polygon fill="#f2f2f2" stroke="#000000" points="477.7181,-230.7 477.7181,-272.3 605.6747,-272.3 605.6747,-230.7 477.7181,-230.7"/>
<text text-anchor="middle" x="541.6964" y="-255.7" font-family="Times,serif" font-size="14.00" fill="#000000">&lt;&lt;Abstract&gt;&gt;</text>
<text text-anchor="middle" x="541.6964" y="-238.9" font-family="Times,serif" font-size="14.00" fill="#000000">IGovernorTimelock</text>
</g>
<!-- 8&#45;&gt;10 -->
<g id="edge9" class="edge">
<title>8&#45;&gt;10</title>
<path fill="none" stroke="#000000" d="M541.6964,-193.9634C541.6964,-196.0949 541.6964,-198.3184 541.6964,-200.5992"/>
<polygon fill="none" stroke="#000000" points="531.1965,-200.651 541.6964,-230.651 552.1965,-200.6511 531.1965,-200.651"/>
</g>
<!-- 9 -->
<g id="node11" class="node">
<title>9</title>
<polygon fill="#f2f2f2" stroke="#000000" points="184.547,-152.1 184.547,-193.7 286.8458,-193.7 286.8458,-152.1 184.547,-152.1"/>
<text text-anchor="middle" x="235.6964" y="-177.1" font-family="Times,serif" font-size="14.00" fill="#000000">&lt;&lt;Abstract&gt;&gt;</text>
<text text-anchor="middle" x="235.6964" y="-160.3" font-family="Times,serif" font-size="14.00" fill="#000000">GovernorVotes</text>
</g>
<!-- 9&#45;&gt;4 -->
<g id="edge12" class="edge">
<title>9&#45;&gt;4</title>
<path fill="none" stroke="#000000" d="M282.6645,-193.757C299.7352,-201.3376 319.4721,-210.1021 338.3301,-218.4763"/>
<polygon fill="none" stroke="#000000" points="334.1366,-228.1028 365.8162,-230.682 342.6595,-208.9101 334.1366,-228.1028"/>
</g>
<!-- 12 -->
<g id="node14" class="node">
<title>12</title>
<polygon fill="#f2f2f2" stroke="#000000" points="125.0418,-230.7 125.0418,-272.3 222.351,-272.3 222.351,-230.7 125.0418,-230.7"/>
<text text-anchor="middle" x="173.6964" y="-255.7" font-family="Times,serif" font-size="14.00" fill="#000000">&lt;&lt;Interface&gt;&gt;</text>
<text text-anchor="middle" x="173.6964" y="-238.9" font-family="Times,serif" font-size="14.00" fill="#000000">IVotes</text>
</g>
<!-- 9&#45;&gt;12 -->
<g id="edge13" class="edge">
<title>9&#45;&gt;12</title>
<path fill="none" stroke="#000000" d="M219.0815,-193.9634C212.1458,-202.756 203.9758,-213.1136 196.4929,-222.6"/>
<polygon fill="#000000" stroke="#000000" points="193.5874,-220.632 190.1421,-230.651 199.0834,-224.9673 193.5874,-220.632"/>
</g>
<!-- 11&#45;&gt;9 -->
<g id="edge14" class="edge">
<title>11&#45;&gt;9</title>
<path fill="none" stroke="#000000" d="M235.6964,-115.3634C235.6964,-117.4949 235.6964,-119.7184 235.6964,-121.9992"/>
<polygon fill="none" stroke="#000000" points="225.1965,-122.051 235.6964,-152.051 246.1965,-122.0511 225.1965,-122.051"/>
</g>
<!-- 10&#45;&gt;5 -->
<g id="edge15" class="edge">
<title>10&#45;&gt;5</title>
<path fill="none" stroke="#000000" d="M524.2776,-272.5634C520.8256,-276.7377 517.0819,-281.2646 513.262,-285.8837"/>
<polygon fill="none" stroke="#000000" points="504.9649,-279.4407 493.9379,-309.251 521.1481,-292.8237 504.9649,-279.4407"/>
</g>
<!-- 13 -->
<g id="node15" class="node">
<title>13</title>
<polygon fill="#f2f2f2" stroke="#000000" points="31.0835,-312.1 31.0835,-348.1 88.3093,-348.1 88.3093,-312.1 31.0835,-312.1"/>
<text text-anchor="middle" x="59.6964" y="-326" font-family="Times,serif" font-size="14.00" fill="#000000">ERC20</text>
</g>
<!-- 14 -->
<g id="node16" class="node">
<title>14</title>
<polygon fill="#f2f2f2" stroke="#000000" points="11.0418,-387.9 11.0418,-429.5 108.351,-429.5 108.351,-387.9 11.0418,-387.9"/>
<text text-anchor="middle" x="59.6964" y="-412.9" font-family="Times,serif" font-size="14.00" fill="#000000">&lt;&lt;Interface&gt;&gt;</text>
<text text-anchor="middle" x="59.6964" y="-396.1" font-family="Times,serif" font-size="14.00" fill="#000000">IERC20</text>
</g>
<!-- 13&#45;&gt;14 -->
<g id="edge16" class="edge">
<title>13&#45;&gt;14</title>
<path fill="none" stroke="#000000" stroke-dasharray="5,2" d="M59.6964,-348.33C59.6964,-351.2777 59.6964,-354.45 59.6964,-357.7423"/>
<polygon fill="none" stroke="#000000" points="49.1965,-357.7914 59.6964,-387.7915 70.1965,-357.7915 49.1965,-357.7914"/>
</g>
<!-- 15&#45;&gt;12 -->
<g id="edge17" class="edge">
<title>15&#45;&gt;12</title>
<path fill="none" stroke="#000000" stroke-dasharray="5,2" d="M89.947,-193.757C98.7077,-199.7973 108.5587,-206.5893 118.3449,-213.3366"/>
<polygon fill="none" stroke="#000000" points="112.6458,-222.161 143.3044,-230.5455 124.5661,-204.8721 112.6458,-222.161"/>
</g>
<!-- 16 -->
<g id="node18" class="node">
<title>16</title>
<polygon fill="#f2f2f2" stroke="#000000" points="12.1961,-230.7 12.1961,-272.3 107.1967,-272.3 107.1967,-230.7 12.1961,-230.7"/>
<text text-anchor="middle" x="59.6964" y="-255.7" font-family="Times,serif" font-size="14.00" fill="#000000">&lt;&lt;Abstract&gt;&gt;</text>
<text text-anchor="middle" x="59.6964" y="-238.9" font-family="Times,serif" font-size="14.00" fill="#000000">ERC20Permit</text>
</g>
<!-- 15&#45;&gt;16 -->
<g id="edge18" class="edge">
<title>15&#45;&gt;16</title>
<path fill="none" stroke="#000000" d="M59.6964,-193.9634C59.6964,-196.0949 59.6964,-198.3184 59.6964,-200.5992"/>
<polygon fill="none" stroke="#000000" points="49.1965,-200.651 59.6964,-230.651 70.1965,-200.6511 49.1965,-200.651"/>
</g>
<!-- 16&#45;&gt;13 -->
<g id="edge19" class="edge">
<title>16&#45;&gt;13</title>
<path fill="none" stroke="#000000" d="M59.6964,-272.5634C59.6964,-275.441 59.6964,-278.4862 59.6964,-281.6136"/>
<polygon fill="none" stroke="#000000" points="49.1965,-281.9179 59.6964,-311.9179 70.1965,-281.918 49.1965,-281.9179"/>
</g>
</g>
</svg>
